<?xml version="1.0" encoding="UTF-8"?>
<svg xmlns="http://www.w3.org/2000/svg" xmlns:xlink="http://www.w3.org/1999/xlink" width="500px" height="px" viewBox="0 0 500 500" version="1.1">
<defs>
<filter id="alpha" filterUnits="objectBoundingBox" x="0%" y="0%" width="100%" height="100%">
  <feColorMatrix type="matrix" in="SourceGraphic" values="0 0 0 0 1 0 0 0 0 1 0 0 0 0 1 0 0 0 1 0"/>
</filter>
<mask id="mask0">
  <g filter="url(#alpha)">
<rect x="0" y="0" width="500" height="500" style="fill:rgb(0%,0%,0%);fill-opacity:0.301961;stroke:none;"/>
  </g>
</mask>
<clipPath id="clip1">
  <rect x="0" y="0" width="500" height="500"/>
</clipPath>
<g id="surface5" clip-path="url(#clip1)">
<path style=" stroke:none;fill-rule:nonzero;fill:rgb(0%,0%,0%);fill-opacity:1;" d="M 140.625 153.9375 C 140.625 218.109375 140.625 282.285156 140.625 346.457031 C 177.183594 341.222656 216.164062 347.191406 252.929688 363.53125 L 252.929688 171.011719 C 216.164062 154.671875 177.183594 148.707031 140.625 153.9375 Z M 236.378906 329.425781 C 211.578125 317.71875 185.398438 313.402344 160.664062 316.933594 L 159.28125 307.265625 C 185.894531 303.457031 214.007812 308.066406 240.542969 320.597656 Z M 236.378906 290.28125 C 211.578125 278.574219 185.398438 274.25 160.664062 277.785156 L 159.28125 268.121094 C 185.894531 264.308594 214.003906 268.917969 240.542969 281.449219 Z M 236.378906 251.136719 C 211.578125 239.425781 185.398438 235.105469 160.664062 238.640625 L 159.28125 228.976562 C 185.894531 225.164062 214.007812 229.773438 240.542969 242.304688 Z M 240.542969 203.15625 L 236.378906 211.988281 C 211.574219 200.273438 185.402344 195.960938 160.664062 199.496094 L 159.28125 189.828125 C 185.894531 186.023438 214.003906 190.625 240.542969 203.15625 Z M 240.542969 203.15625 "/>
</g>
<mask id="mask1">
  <g filter="url(#alpha)">
<rect x="0" y="0" width="500" height="500" style="fill:rgb(0%,0%,0%);fill-opacity:0.301961;stroke:none;"/>
  </g>
</mask>
<clipPath id="clip2">
  <rect x="0" y="0" width="500" height="500"/>
</clipPath>
<g id="surface8" clip-path="url(#clip2)">
<path style=" stroke:none;fill-rule:nonzero;fill:rgb(0%,0%,0%);fill-opacity:1;" d="M 338.558594 152.488281 L 338.558594 226.296875 L 316.40625 209.683594 L 294.253906 226.296875 L 294.253906 159.769531 C 283.628906 162.707031 273.070312 166.398438 262.695312 171.011719 L 262.695312 363.53125 C 299.457031 347.191406 338.441406 341.222656 375 346.457031 C 375 282.285156 375 218.109375 375 153.9375 C 363.058594 152.230469 350.851562 151.835938 338.558594 152.488281 Z M 338.558594 152.488281 "/>
</g>
</defs>
<g id="surface1">
<path style=" stroke:none;fill-rule:nonzero;fill:rgb(97.647059%,45.098039%,8.627451%);fill-opacity:1;" d="M 500 250 C 500 388.070312 388.070312 500 250 500 C 111.929688 500 0 388.070312 0 250 C 0 111.929688 111.929688 0 250 0 C 388.070312 0 500 111.929688 500 250 Z M 500 250 "/>
<path style=" stroke:none;fill-rule:nonzero;fill:rgb(97.647059%,45.098039%,8.627451%);fill-opacity:1;" d="M 250 458.332031 C 135.125 458.332031 41.667969 364.875 41.667969 250 C 41.667969 135.125 135.125 41.667969 250 41.667969 C 364.878906 41.667969 458.332031 135.125 458.332031 250 C 458.332031 364.875 364.878906 458.332031 250 458.332031 Z M 250 458.332031 "/>
<use xlink:href="#surface5" mask="url(#mask0)"/>
<use xlink:href="#surface8" mask="url(#mask1)"/>
<path style=" stroke:none;fill-rule:nonzero;fill:rgb(100%,100%,100%);fill-opacity:1;" d="M 132.8125 146.125 C 132.8125 210.296875 132.8125 274.472656 132.8125 338.644531 C 169.371094 333.410156 208.351562 339.378906 245.117188 355.71875 L 245.117188 163.199219 C 208.351562 146.859375 169.371094 140.894531 132.8125 146.125 Z M 228.566406 321.613281 C 203.765625 309.90625 177.585938 305.589844 152.851562 309.121094 L 151.46875 299.453125 C 178.082031 295.644531 206.195312 300.253906 232.730469 312.785156 Z M 228.566406 282.46875 C 203.765625 270.761719 177.585938 266.4375 152.851562 269.972656 L 151.46875 260.308594 C 178.082031 256.496094 206.191406 261.105469 232.730469 273.636719 Z M 228.566406 243.324219 C 203.765625 231.613281 177.585938 227.292969 152.851562 230.828125 L 151.46875 221.164062 C 178.082031 217.351562 206.195312 221.960938 232.730469 234.492188 Z M 232.730469 195.34375 L 228.566406 204.175781 C 203.761719 192.460938 177.589844 188.148438 152.851562 191.683594 L 151.46875 182.015625 C 178.082031 178.210938 206.191406 182.8125 232.730469 195.34375 Z M 232.730469 195.34375 "/>
<path style=" stroke:none;fill-rule:nonzero;fill:rgb(100%,100%,100%);fill-opacity:1;" d="M 330.746094 144.675781 L 330.746094 218.484375 L 308.59375 201.871094 L 286.441406 218.484375 L 286.441406 151.957031 C 275.816406 154.894531 265.257812 158.585938 254.882812 163.199219 L 254.882812 355.71875 C 291.644531 339.378906 330.628906 333.410156 367.1875 338.644531 C 367.1875 274.472656 367.1875 210.296875 367.1875 146.125 C 355.246094 144.417969 343.039062 144.023438 330.746094 144.675781 Z M 330.746094 144.675781 "/>
</g>
</svg>
