<?xml version="1.0" encoding="UTF-8"?>
<svg xmlns="http://www.w3.org/2000/svg" xmlns:xlink="http://www.w3.org/1999/xlink" width="500px" height="px" viewBox="0 0 500 500" version="1.1">
<g id="surface1">
<path style=" stroke:none;fill-rule:nonzero;fill:rgb(93.72549%,26.666667%,26.666667%);fill-opacity:1;" d="M 497.027344 251.160156 C 497.027344 388.410156 385.765625 499.675781 248.515625 499.675781 C 111.265625 499.675781 0 388.410156 0 251.160156 C 0 113.910156 111.265625 2.644531 248.515625 2.644531 C 385.765625 2.644531 497.027344 113.910156 497.027344 251.160156 Z M 497.027344 251.160156 "/>
<path style=" stroke:none;fill-rule:nonzero;fill:rgb(100%,100%,100%);fill-opacity:1;" d="M 353.320312 209.34375 L 290.332031 209.34375 L 290.332031 146.355469 C 290.332031 142.746094 287.40625 139.816406 283.796875 139.816406 L 213.234375 139.816406 C 209.625 139.816406 206.695312 142.746094 206.695312 146.355469 L 206.695312 209.34375 L 143.707031 209.34375 C 140.097656 209.34375 137.171875 212.269531 137.171875 215.878906 L 137.171875 286.441406 C 137.171875 290.050781 140.097656 292.976562 143.707031 292.976562 L 206.695312 292.976562 L 206.695312 355.953125 C 206.695312 359.566406 209.621094 362.496094 213.234375 362.503906 L 283.796875 362.503906 C 285.53125 362.503906 287.195312 361.8125 288.421875 360.585938 C 289.648438 359.355469 290.335938 357.6875 290.332031 355.953125 L 290.332031 292.976562 L 353.320312 292.976562 C 356.929688 292.976562 359.855469 290.050781 359.855469 286.441406 L 359.855469 215.878906 C 359.855469 212.269531 356.929688 209.34375 353.320312 209.34375 Z M 353.320312 209.34375 "/>
<path style=" stroke:none;fill-rule:nonzero;fill:rgb(23.137255%,50.980392%,96.470588%);fill-opacity:1;" d="M 497.027344 251.464844 C 497.027344 388.714844 385.765625 499.980469 248.515625 499.980469 C 111.265625 499.980469 0 388.714844 0 251.464844 C 0 114.214844 111.265625 2.949219 248.515625 2.949219 C 385.765625 2.949219 497.027344 114.214844 497.027344 251.464844 Z M 497.027344 251.464844 "/>
<path style=" stroke:none;fill-rule:nonzero;fill:rgb(100%,100%,100%);fill-opacity:1;" d="M 178.949219 229.050781 L 114.203125 281.289062 C 112.890625 282.339844 112.128906 283.929688 112.128906 285.613281 L 112.128906 346.183594 C 112.128906 349.234375 114.605469 351.710938 117.660156 351.710938 L 182.417969 351.710938 C 185.46875 351.710938 187.945312 349.234375 187.945312 346.183594 L 187.945312 233.402344 C 187.953125 231.257812 186.71875 229.304688 184.78125 228.386719 C 182.867188 227.472656 180.605469 227.730469 178.949219 229.050781 Z M 176.875 340.601562 L 123.253906 340.601562 L 123.253906 288.28125 L 176.875 245.023438 Z M 176.875 340.601562 "/>
<path style=" stroke:none;fill-rule:nonzero;fill:rgb(100%,100%,100%);fill-opacity:1;" d="M 225.449219 195.261719 L 208.742188 205.707031 C 207.109375 206.71875 206.113281 208.5 206.117188 210.421875 L 206.117188 346.183594 C 206.117188 349.234375 208.589844 351.710938 211.644531 351.710938 L 276.429688 351.710938 C 279.484375 351.710938 281.957031 349.234375 281.957031 346.183594 L 281.957031 250.109375 C 281.960938 248.671875 281.40625 247.289062 280.410156 246.253906 L 232.375 196.132812 C 230.5625 194.238281 227.671875 193.875 225.449219 195.261719 Z M 270.875 340.628906 L 217.253906 340.628906 L 217.253906 213.488281 L 227.507812 207.078125 L 270.875 252.320312 Z M 270.875 340.628906 "/>
<path style=" stroke:none;fill-rule:nonzero;fill:rgb(100%,100%,100%);fill-opacity:1;" d="M 344.1875 207.503906 L 301.746094 249.957031 C 301.011719 250.691406 300.597656 251.683594 300.601562 252.722656 L 300.601562 347.898438 C 300.601562 350.054688 302.351562 351.808594 304.511719 351.808594 L 346.949219 351.808594 C 349.105469 351.800781 350.847656 350.050781 350.847656 347.898438 L 350.847656 210.269531 C 350.855469 208.6875 349.902344 207.257812 348.445312 206.652344 C 346.984375 206.046875 345.300781 206.382812 344.1875 207.503906 Z M 343.054688 343.957031 L 308.40625 343.957031 L 308.40625 254.324219 L 343.054688 219.679688 Z M 343.054688 343.957031 "/>
<path style=" stroke:none;fill-rule:nonzero;fill:rgb(100%,100%,100%);fill-opacity:1;" d="M 380.683594 146.230469 L 288.851562 213.75 L 235.398438 157.796875 C 233.289062 155.71875 230.050781 155.300781 227.480469 156.773438 L 108.828125 239.316406 C 101.917969 244.085938 108.496094 255.429688 115.433594 250.609375 C 153.59375 224.054688 191.753906 197.515625 229.914062 170.980469 L 283.449219 227.03125 C 285.273438 228.9375 289.101562 229.714844 291.367188 228.054688 C 323.347656 204.550781 355.320312 181.058594 387.289062 157.574219 C 394.003906 152.585938 387.480469 141.242188 380.683594 146.230469 Z M 380.683594 146.230469 "/>
<path style=" stroke:none;fill-rule:nonzero;fill:rgb(20.392157%,82.745098%,60%);fill-opacity:1;" d="M 500 250 C 500 388.058594 388.082031 499.980469 250.019531 499.980469 C 111.960938 499.980469 0.0429688 388.058594 0.0429688 250 C 0.0429688 111.941406 111.960938 0.0195312 250.019531 0.0195312 C 388.082031 0.0195312 500 111.941406 500 250 Z M 500 250 "/>
<path style=" stroke:none;fill-rule:nonzero;fill:rgb(100%,100%,100%);fill-opacity:1;" d="M 366.324219 346.984375 C 380.464844 346.976562 391.941406 335.542969 392 321.40625 L 392.472656 179.535156 C 392.496094 165.367188 381.058594 153.851562 366.890625 153.777344 L 133.8125 153.042969 L 133.730469 153.042969 C 119.589844 153.050781 108.113281 164.484375 108.054688 178.621094 L 107.554688 320.464844 C 107.527344 327.273438 110.207031 333.816406 115.003906 338.648438 C 119.804688 343.480469 126.328125 346.207031 133.136719 346.222656 L 366.199219 346.984375 Z M 156.269531 324.875 L 148.378906 324.875 L 148.378906 324.734375 L 147.867188 324.734375 C 144.421875 324.726562 141.121094 323.351562 138.691406 320.90625 C 136.261719 318.460938 134.902344 315.148438 134.917969 311.703125 L 135.320312 187.605469 C 135.359375 180.449219 141.167969 174.664062 148.324219 174.65625 L 352.160156 175.292969 C 359.335938 175.332031 365.128906 181.160156 365.121094 188.335938 L 364.707031 312.421875 C 364.675781 319.578125 358.875 325.371094 351.71875 325.386719 L 156.269531 324.734375 Z M 156.269531 324.875 "/>
<path style=" stroke:none;fill-rule:nonzero;fill:rgb(100%,100%,100%);fill-opacity:1;" d="M 336.957031 195.882812 L 282.871094 195.882812 C 281.34375 195.882812 280.105469 197.121094 280.105469 198.648438 L 280.105469 270.507812 C 280.105469 272.035156 281.34375 273.273438 282.871094 273.273438 L 336.957031 273.273438 C 338.457031 273.234375 339.652344 272.007812 339.652344 270.507812 L 339.652344 198.648438 C 339.652344 197.148438 338.457031 195.921875 336.957031 195.882812 Z M 334.195312 267.742188 L 285.578125 267.742188 L 285.578125 201.300781 L 334.195312 201.300781 Z M 334.195312 267.742188 "/>
<path style=" stroke:none;fill-rule:nonzero;fill:rgb(100%,100%,100%);fill-opacity:1;" d="M 160.871094 273.105469 L 244.632812 273.105469 C 247.617188 273.105469 250.035156 270.6875 250.035156 267.703125 C 250.035156 264.71875 247.617188 262.300781 244.632812 262.300781 L 160.871094 262.300781 C 157.886719 262.300781 155.46875 264.71875 155.46875 267.703125 C 155.46875 270.6875 157.886719 273.105469 160.871094 273.105469 Z M 160.871094 273.105469 "/>
<path style=" stroke:none;fill-rule:nonzero;fill:rgb(100%,100%,100%);fill-opacity:1;" d="M 283.808594 287.960938 L 160.816406 287.960938 C 157.832031 287.960938 155.414062 290.382812 155.414062 293.367188 C 155.414062 296.347656 157.832031 298.769531 160.816406 298.769531 L 283.808594 298.769531 C 286.792969 298.769531 289.210938 296.347656 289.210938 293.367188 C 289.210938 290.382812 286.792969 287.960938 283.808594 287.960938 Z M 283.808594 287.960938 "/>
</g>
</svg>
