<?xml version="1.0" encoding="UTF-8"?>
<svg xmlns="http://www.w3.org/2000/svg" xmlns:xlink="http://www.w3.org/1999/xlink" width="500px" height="px" viewBox="0 0 500 500" version="1.1">
<g id="surface1">
<path style=" stroke:none;fill-rule:nonzero;fill:rgb(93.72549%,26.666667%,26.666667%);fill-opacity:1;" d="M 496.140625 249.308594 C 496.140625 385.554688 385.992188 496.007812 250.117188 496.007812 C 114.242188 496.007812 4.089844 385.554688 4.089844 249.308594 C 4.089844 113.058594 114.242188 2.605469 250.117188 2.605469 C 385.992188 2.605469 496.140625 113.058594 496.140625 249.308594 Z M 496.140625 249.308594 "/>
<path style=" stroke:none;fill-rule:nonzero;fill:rgb(100%,100%,100%);fill-opacity:1;" d="M 353.871094 207.792969 L 291.515625 207.792969 L 291.515625 145.265625 C 291.515625 141.683594 288.617188 138.777344 285.042969 138.777344 L 215.1875 138.777344 C 211.613281 138.777344 208.71875 141.683594 208.71875 145.265625 L 208.71875 207.792969 L 146.359375 207.792969 C 142.785156 207.792969 139.890625 210.699219 139.890625 214.285156 L 139.890625 284.332031 C 139.890625 287.914062 142.785156 290.820312 146.359375 290.820312 L 208.71875 290.820312 L 208.71875 353.335938 C 208.71875 356.921875 211.613281 359.828125 215.1875 359.835938 L 285.042969 359.835938 C 286.761719 359.835938 288.410156 359.152344 289.625 357.933594 C 290.839844 356.710938 291.519531 355.058594 291.515625 353.335938 L 291.515625 290.820312 L 353.871094 290.820312 C 357.445312 290.820312 360.34375 287.914062 360.34375 284.332031 L 360.34375 214.285156 C 360.34375 210.699219 357.445312 207.792969 353.871094 207.792969 Z M 353.871094 207.792969 "/>
<path style=" stroke:none;fill-rule:nonzero;fill:rgb(23.137255%,50.980392%,96.470588%);fill-opacity:1;" d="M 496.140625 249.609375 C 496.140625 385.859375 385.992188 496.308594 250.117188 496.308594 C 114.242188 496.308594 4.089844 385.859375 4.089844 249.609375 C 4.089844 113.359375 114.242188 2.910156 250.117188 2.910156 C 385.992188 2.910156 496.140625 113.359375 496.140625 249.609375 Z M 496.140625 249.609375 "/>
<path style=" stroke:none;fill-rule:nonzero;fill:rgb(100%,100%,100%);fill-opacity:1;" d="M 181.246094 227.359375 L 117.152344 279.214844 C 115.851562 280.257812 115.097656 281.835938 115.097656 283.507812 L 115.097656 343.636719 C 115.097656 346.667969 117.550781 349.125 120.570312 349.125 L 184.679688 349.125 C 187.703125 349.125 190.152344 346.667969 190.152344 343.636719 L 190.152344 231.679688 C 190.160156 229.550781 188.9375 227.609375 187.019531 226.699219 C 185.128906 225.792969 182.886719 226.046875 181.246094 227.359375 Z M 179.195312 338.09375 L 126.113281 338.09375 L 126.113281 286.15625 L 179.195312 243.214844 Z M 179.195312 338.09375 "/>
<path style=" stroke:none;fill-rule:nonzero;fill:rgb(100%,100%,100%);fill-opacity:1;" d="M 227.28125 193.816406 L 210.742188 204.1875 C 209.125 205.1875 208.140625 206.957031 208.144531 208.863281 L 208.144531 343.636719 C 208.144531 346.667969 210.59375 349.125 213.617188 349.125 L 277.75 349.125 C 280.773438 349.125 283.222656 346.667969 283.222656 343.636719 L 283.222656 248.265625 C 283.230469 246.835938 282.679688 245.464844 281.691406 244.4375 L 234.136719 194.679688 C 232.34375 192.800781 229.484375 192.4375 227.28125 193.816406 Z M 272.253906 338.121094 L 219.171875 338.121094 L 219.171875 211.910156 L 229.320312 205.546875 L 272.253906 250.460938 Z M 272.253906 338.121094 "/>
<path style=" stroke:none;fill-rule:nonzero;fill:rgb(100%,100%,100%);fill-opacity:1;" d="M 344.828125 205.96875 L 302.816406 248.113281 C 302.085938 248.839844 301.675781 249.828125 301.679688 250.855469 L 301.679688 345.335938 C 301.679688 347.480469 303.414062 349.21875 305.550781 349.21875 L 347.566406 349.21875 C 349.699219 349.210938 351.425781 347.476562 351.425781 345.335938 L 351.425781 208.714844 C 351.429688 207.144531 350.492188 205.726562 349.042969 205.125 C 347.597656 204.523438 345.933594 204.855469 344.828125 205.96875 Z M 343.707031 341.425781 L 309.410156 341.425781 L 309.410156 252.449219 L 343.707031 218.054688 Z M 343.707031 341.425781 "/>
<path style=" stroke:none;fill-rule:nonzero;fill:rgb(100%,100%,100%);fill-opacity:1;" d="M 380.960938 145.140625 L 290.050781 212.171875 L 237.132812 156.625 C 235.042969 154.5625 231.839844 154.148438 229.292969 155.609375 L 111.828125 237.550781 C 104.988281 242.285156 111.5 253.546875 118.367188 248.757812 C 156.144531 222.402344 193.925781 196.050781 231.703125 169.710938 L 284.703125 225.355469 C 286.507812 227.246094 290.296875 228.015625 292.539062 226.371094 C 324.199219 203.039062 355.851562 179.71875 387.5 156.40625 C 394.148438 151.453125 387.691406 140.191406 380.960938 145.140625 Z M 380.960938 145.140625 "/>
<path style=" stroke:none;fill-rule:nonzero;fill:rgb(20.392157%,82.745098%,60%);fill-opacity:1;" d="M 499.082031 248.15625 C 499.082031 385.207031 388.285156 496.308594 251.609375 496.308594 C 114.929688 496.308594 4.132812 385.207031 4.132812 248.15625 C 4.132812 111.101562 114.929688 0 251.609375 0 C 388.285156 0 499.082031 111.101562 499.082031 248.15625 Z M 499.082031 248.15625 "/>
<path style=" stroke:none;fill-rule:nonzero;fill:rgb(100%,100%,100%);fill-opacity:1;" d="M 366.746094 344.429688 C 380.746094 344.425781 392.105469 333.074219 392.164062 319.039062 L 392.632812 178.203125 C 392.652344 164.140625 381.332031 152.707031 367.308594 152.632812 L 136.5625 151.90625 L 136.480469 151.90625 C 122.484375 151.914062 111.125 163.261719 111.0625 177.296875 L 110.570312 318.105469 C 110.542969 324.867188 113.195312 331.359375 117.945312 336.15625 C 122.695312 340.953125 129.152344 343.660156 135.894531 343.675781 L 366.625 344.429688 Z M 158.796875 322.480469 L 150.984375 322.480469 L 150.984375 322.34375 L 150.476562 322.34375 C 147.066406 322.335938 143.796875 320.96875 141.390625 318.542969 C 138.988281 316.117188 137.644531 312.828125 137.660156 309.40625 L 138.054688 186.214844 C 138.09375 179.109375 143.84375 173.367188 150.929688 173.359375 L 352.722656 173.992188 C 359.828125 174.03125 365.5625 179.820312 365.554688 186.941406 L 365.144531 310.121094 C 365.117188 317.226562 359.371094 322.972656 352.285156 322.988281 L 158.796875 322.34375 Z M 158.796875 322.480469 "/>
<path style=" stroke:none;fill-rule:nonzero;fill:rgb(100%,100%,100%);fill-opacity:1;" d="M 337.675781 194.433594 L 284.128906 194.433594 C 282.617188 194.433594 281.390625 195.660156 281.390625 197.175781 L 281.390625 268.511719 C 281.390625 270.027344 282.617188 271.257812 284.128906 271.257812 L 337.675781 271.257812 C 339.160156 271.21875 340.34375 270.003906 340.34375 268.511719 L 340.34375 197.175781 C 340.34375 195.6875 339.160156 194.46875 337.675781 194.433594 Z M 334.9375 265.769531 L 286.808594 265.769531 L 286.808594 199.8125 L 334.9375 199.8125 Z M 334.9375 265.769531 "/>
<path style=" stroke:none;fill-rule:nonzero;fill:rgb(100%,100%,100%);fill-opacity:1;" d="M 163.351562 271.09375 L 246.273438 271.09375 C 249.226562 271.09375 251.621094 268.691406 251.621094 265.726562 C 251.621094 262.765625 249.226562 260.363281 246.273438 260.363281 L 163.351562 260.363281 C 160.398438 260.363281 158.003906 262.765625 158.003906 265.726562 C 158.003906 268.691406 160.398438 271.09375 163.351562 271.09375 Z M 163.351562 271.09375 "/>
<path style=" stroke:none;fill-rule:nonzero;fill:rgb(100%,100%,100%);fill-opacity:1;" d="M 285.058594 285.839844 L 163.296875 285.839844 C 160.34375 285.839844 157.949219 288.242188 157.949219 291.203125 C 157.949219 294.167969 160.34375 296.566406 163.296875 296.566406 L 285.058594 296.566406 C 288.011719 296.566406 290.40625 294.167969 290.40625 291.203125 C 290.40625 288.242188 288.011719 285.839844 285.058594 285.839844 Z M 285.058594 285.839844 "/>
<path style=" stroke:none;fill-rule:nonzero;fill:rgb(48.627451%,22.745098%,92.941176%);fill-opacity:1;" d="M 498.851562 249.925781 C 498.851562 387.953125 387.261719 499.847656 249.609375 499.847656 C 111.957031 499.847656 0.371094 387.953125 0.371094 249.925781 C 0.371094 111.894531 111.957031 0 249.609375 0 C 387.261719 0 498.851562 111.894531 498.851562 249.925781 Z M 498.851562 249.925781 "/>
<path style=" stroke:none;fill-rule:nonzero;fill:rgb(100%,100%,100%);fill-opacity:1;" d="M 249.625 388.234375 C 325.800781 388.234375 387.554688 326.3125 387.554688 249.925781 C 387.554688 173.539062 325.800781 111.613281 249.625 111.613281 C 173.445312 111.613281 111.691406 173.539062 111.691406 249.925781 C 111.773438 326.277344 173.480469 388.152344 249.625 388.234375 Z M 249.625 140.847656 C 309.699219 140.847656 358.402344 189.683594 358.402344 249.925781 C 358.402344 310.164062 309.699219 359 249.625 359 C 189.546875 359 140.847656 310.164062 140.847656 249.925781 C 140.914062 189.710938 189.574219 140.917969 249.625 140.847656 Z M 249.625 140.847656 "/>
<path style=" stroke:none;fill-rule:nonzero;fill:rgb(100%,100%,100%);fill-opacity:1;" d="M 219.882812 321.644531 C 220.816406 322.140625 221.859375 322.402344 222.917969 322.398438 C 224.199219 322.40625 225.453125 322.023438 226.515625 321.300781 L 324.210938 255.289062 C 325.988281 254.085938 327.050781 252.074219 327.050781 249.925781 C 327.050781 247.773438 325.988281 245.765625 324.210938 244.5625 L 226.515625 178.546875 C 224.539062 177.214844 221.988281 177.085938 219.886719 178.207031 C 217.78125 179.328125 216.464844 181.523438 216.460938 183.910156 L 216.460938 315.9375 C 216.460938 318.328125 217.777344 320.523438 219.882812 321.644531 Z M 229.375 196.078125 L 309.054688 249.925781 L 229.375 303.769531 Z M 229.375 196.078125 "/>
<path style=" stroke:none;fill-rule:nonzero;fill:rgb(98.431373%,74.901961%,14.117647%);fill-opacity:1;" d="M 499.683594 249.992188 C 499.683594 388.058594 388.066406 499.984375 250.375 499.984375 C 112.6875 499.984375 1.066406 388.058594 1.066406 249.992188 C 1.066406 111.925781 112.6875 0 250.375 0 C 388.066406 0 499.683594 111.925781 499.683594 249.992188 Z M 499.683594 249.992188 "/>
<path style=" stroke:none;fill-rule:nonzero;fill:rgb(100%,100%,100%);fill-opacity:1;" d="M 371.070312 179.917969 L 371.070312 178.671875 L 365.417969 178.671875 C 363.339844 173.582031 355.84375 167.40625 324.609375 162.523438 C 301.023438 158.847656 269.75 156.816406 236.542969 156.816406 C 203.339844 156.816406 172.050781 158.847656 148.464844 162.523438 C 116.863281 167.460938 109.503906 173.730469 107.5625 178.917969 L 106.398438 178.917969 L 106.398438 185.886719 C 106.398438 231.84375 123.335938 275.058594 152.914062 304.882812 C 129.503906 311.21875 117.628906 319.972656 117.628906 330.851562 C 117.628906 358.972656 196.855469 366.410156 238.746094 366.410156 C 280.636719 366.410156 359.835938 359.054688 359.835938 330.90625 C 359.835938 319.929688 347.960938 311.246094 324.5 304.839844 C 326.15625 303.179688 327.6875 301.589844 329.097656 300.039062 C 336.785156 301.304688 344.5625 301.964844 352.355469 302.015625 C 374.242188 302.015625 392.027344 296.417969 405.164062 285.359375 C 419.816406 273.011719 427.558594 254.820312 427.558594 232.597656 C 427.585938 198.617188 397.472656 183.058594 371.070312 179.917969 Z M 369.605469 209.398438 C 380.425781 212.417969 392.4375 219.277344 392.4375 234.863281 C 392.4375 247.59375 388.199219 257.894531 380.125 264.628906 C 372.425781 271.09375 361.617188 274.234375 347.960938 274.097656 C 359.378906 254.179688 366.734375 232.191406 369.605469 209.398438 Z M 236.53125 169.902344 C 298.273438 169.902344 340.765625 176.929688 351.453125 182.59375 C 340.820312 188.273438 298.328125 195.296875 236.53125 195.296875 C 174.734375 195.296875 132.269531 188.273438 121.609375 182.59375 C 132.269531 176.929688 174.789062 169.902344 236.53125 169.902344 Z M 346.800781 330.90625 C 346.800781 338.820312 305.757812 353.363281 238.71875 353.363281 C 171.683594 353.363281 130.640625 338.820312 130.640625 330.90625 C 130.640625 327.707031 139.710938 320.988281 164.597656 315.484375 C 186.484375 333.074219 212.152344 342.359375 238.691406 342.359375 C 265.234375 342.359375 290.777344 333.058594 312.746094 315.472656 C 337.675781 320.972656 346.800781 327.695312 346.800781 330.90625 Z M 238.71875 329.273438 C 175.898438 329.273438 124.03125 270.832031 119.695312 195.765625 C 126.398438 198.4375 135.839844 200.703125 148.425781 202.621094 C 172.011719 206.3125 203.285156 208.34375 236.503906 208.34375 C 269.722656 208.34375 300.980469 206.3125 324.566406 202.621094 C 340.261719 200.179688 351.21875 197.230469 357.867188 193.652344 C 354.53125 269.953125 302.664062 329.273438 238.71875 329.273438 Z M 396.816406 275.371094 C 383.585938 286.457031 363.574219 290.875 338.808594 288.214844 L 339.878906 286.730469 C 343.378906 287.0625 346.265625 287.210938 348.921875 287.210938 C 350.957031 287.210938 352.957031 287.210938 354.914062 287.019531 C 368.59375 286.085938 379.839844 281.945312 388.539062 274.671875 C 396.929688 267.546875 402.546875 257.6875 404.410156 246.824219 C 405.148438 242.878906 405.507812 238.875 405.492188 234.863281 C 405.492188 208.109375 382.234375 199.015625 370.796875 196.160156 C 370.796875 195.171875 370.90625 194.1875 370.933594 193.210938 C 377.566406 194.167969 384.050781 195.960938 390.238281 198.546875 C 406.351562 205.519531 414.535156 216.984375 414.535156 232.625 C 414.535156 250.886719 408.40625 265.660156 396.816406 275.371094 Z M 396.816406 275.371094 "/>
<path style=" stroke:none;fill-rule:nonzero;fill:rgb(85.882353%,15.294118%,46.666667%);fill-opacity:1;" d="M 498.917969 249.992188 C 498.917969 388.058594 387.300781 499.984375 249.609375 499.984375 C 111.921875 499.984375 0.300781 388.058594 0.300781 249.992188 C 0.300781 111.925781 111.921875 0 249.609375 0 C 387.300781 0 498.917969 111.925781 498.917969 249.992188 Z M 498.917969 249.992188 "/>
<path style=" stroke:none;fill-rule:nonzero;fill:rgb(100%,100%,100%);fill-opacity:1;" d="M 333.570312 176.144531 C 322.488281 171.933594 312.023438 172.632812 301.734375 175.089844 C 302.335938 174.429688 303.019531 173.867188 303.59375 173.167969 C 314.949219 159.257812 318.875 138.476562 313.171875 121.503906 C 313.058594 121.230469 312.90625 120.972656 312.71875 120.738281 C 312.714844 119.90625 312.355469 119.121094 311.734375 118.574219 C 311.109375 118.027344 310.285156 117.777344 309.464844 117.882812 C 282.730469 120.375 260.054688 138.617188 251.839844 164.253906 C 245.808594 146.226562 232.414062 129.433594 218.28125 118.914062 C 217.464844 118.230469 216.328125 118.085938 215.367188 118.542969 L 215.078125 118.707031 C 214.875 118.832031 214.683594 118.976562 214.503906 119.132812 C 214.367188 119.253906 214.21875 119.296875 214.09375 119.449219 C 208.691406 125.511719 205.886719 134.539062 203.832031 142.246094 C 203.511719 143.320312 203.789062 144.484375 204.558594 145.292969 C 204.976562 145.875 205.570312 146.304688 206.253906 146.515625 C 225.246094 152.332031 239.933594 167.511719 245.164062 186.722656 C 223.808594 183.144531 205.613281 169.628906 182.492188 172.511719 C 160.203125 175.253906 142.816406 190.714844 133.59375 210.785156 C 109.707031 262.53125 137.25 324.648438 170.945312 365.394531 C 188.578125 386.726562 204.984375 384.40625 229.144531 376.367188 C 246.65625 370.539062 258.542969 373.898438 275.578125 378.191406 C 285.015625 380.566406 295.632812 383.050781 305.414062 381.5 C 328.878906 377.78125 344.023438 349.179688 352.464844 329.644531 C 364.898438 300.835938 374.503906 271.3125 373.585938 239.609375 C 372.820312 213.296875 359.332031 185.953125 333.570312 176.144531 Z M 307.027344 125.15625 C 311.339844 140.328125 307.644531 159.449219 296.480469 170.808594 C 286.191406 181.34375 270.351562 184.898438 256.054688 186.96875 C 256.140625 186.671875 256.179688 186.363281 256.175781 186.050781 C 253.988281 156.308594 277.558594 128.925781 307.027344 125.15625 Z M 211.34375 141.039062 C 212.582031 136.03125 214.585938 131.242188 217.28125 126.839844 C 230.277344 137.40625 242.316406 154.277344 246.601562 171.386719 C 238.976562 157.261719 226.421875 146.457031 211.34375 141.039062 Z M 315.320312 358.574219 C 294.113281 378.453125 270.488281 357.328125 246.738281 358.316406 C 235.382812 358.78125 225.382812 364.75 214.546875 367.453125 C 195.1875 372.28125 183.761719 358.246094 174.132812 343.609375 C 157.851562 318.914062 142.804688 292.066406 140.875 261.859375 C 138.945312 231.652344 152.09375 193.679688 185.527344 187.464844 C 209.484375 183.03125 227.828125 199.070312 250.59375 200.796875 C 251.035156 200.949219 251.503906 200.992188 251.964844 200.921875 C 258.519531 200.664062 265.011719 199.484375 271.238281 197.410156 C 274.289062 196.597656 277.285156 195.601562 280.214844 194.433594 C 293.703125 189.769531 307.082031 184.914062 321.121094 188.753906 C 359.234375 199.191406 361.507812 246.742188 354.28125 278.5 C 348.042969 305.773438 336.101562 339.136719 315.332031 358.574219 Z M 315.320312 358.574219 "/>
<path style=" stroke:none;fill-rule:nonzero;fill:rgb(100%,100%,100%);fill-opacity:1;" d="M 187.910156 200.207031 C 164.554688 209.8125 152.75 239.375 156.675781 263.191406 C 157.398438 267.582031 164.078125 265.714844 163.351562 261.339844 C 160.109375 241.707031 170.191406 214.984375 189.742188 206.902344 C 193.804688 205.230469 192.027344 198.546875 187.910156 200.207031 Z M 187.910156 200.207031 "/>
<path style=" stroke:none;fill-rule:nonzero;fill:rgb(100%,100%,100%);fill-opacity:1;" d="M 161.273438 277.527344 C 156.824219 277.527344 156.8125 284.46875 161.273438 284.46875 C 165.730469 284.46875 165.730469 277.527344 161.273438 277.527344 Z M 161.273438 277.527344 "/>
</g>
</svg>
