<?xml version="1.0" encoding="UTF-8"?>
<svg xmlns="http://www.w3.org/2000/svg" xmlns:xlink="http://www.w3.org/1999/xlink" width="500px" height="px" viewBox="0 0 500 500" version="1.1">
<g id="surface1">
<path style=" stroke:none;fill-rule:nonzero;fill:rgb(29.019608%,87.058824%,50.196078%);fill-opacity:1;" d="M 500.015625 250.007812 C 500.015625 388.082031 388.082031 500.015625 250.007812 500.015625 C 111.933594 500.015625 0 388.082031 0 250.007812 C 0 111.933594 111.933594 0 250.007812 0 C 388.082031 0 500.015625 111.933594 500.015625 250.007812 Z M 500.015625 250.007812 "/>
<path style=" stroke:none;fill-rule:nonzero;fill:rgb(100%,100%,100%);fill-opacity:1;" d="M 355.441406 207.9375 L 292.074219 207.9375 L 292.074219 144.570312 C 292.074219 140.9375 289.132812 137.996094 285.5 137.996094 L 214.515625 137.996094 C 210.882812 137.996094 207.9375 140.9375 207.9375 144.570312 L 207.9375 207.9375 L 144.570312 207.9375 C 140.9375 207.9375 137.996094 210.882812 137.996094 214.515625 L 137.996094 285.5 C 137.996094 289.132812 140.9375 292.074219 144.570312 292.074219 L 207.9375 292.074219 L 207.9375 355.429688 C 207.9375 359.0625 210.878906 362.011719 214.515625 362.019531 L 285.5 362.019531 C 287.246094 362.019531 288.921875 361.324219 290.15625 360.085938 C 291.386719 358.851562 292.078125 357.175781 292.074219 355.429688 L 292.074219 292.074219 L 355.441406 292.074219 C 359.074219 292.074219 362.019531 289.132812 362.019531 285.5 L 362.019531 214.515625 C 362.019531 210.882812 359.074219 207.9375 355.441406 207.9375 Z M 355.441406 207.9375 "/>
</g>
</svg>
