<?xml version="1.0" encoding="UTF-8"?>
<svg xmlns="http://www.w3.org/2000/svg" xmlns:xlink="http://www.w3.org/1999/xlink" width="500px" height="px" viewBox="0 0 500 500" version="1.1">
<g id="surface1">
<path style=" stroke:none;fill-rule:nonzero;fill:rgb(5.490196%,64.705882%,91.372549%);fill-opacity:1;" d="M 249.996094 0 C 388.070312 0 500 111.929688 500 250 C 500 388.0625 388.070312 500 249.996094 500 C 111.929688 500 0 388.0625 0 250 C 0 111.929688 111.929688 0 249.996094 0 Z M 249.996094 0 "/>
<path style=" stroke:none;fill-rule:nonzero;fill:rgb(100%,100%,100%);fill-opacity:1;" d="M 325.34375 223.488281 L 325.34375 200.097656 C 325.34375 159.144531 291.546875 125.820312 250.011719 125.820312 C 208.453125 125.820312 174.65625 159.144531 174.65625 200.097656 L 174.65625 223.488281 L 157.90625 223.488281 L 157.90625 374.179688 L 342.09375 374.179688 L 342.09375 223.488281 Z M 208.125 200.097656 C 208.125 177.976562 227.324219 159.300781 250.011719 159.300781 C 272.675781 159.300781 291.851562 177.976562 291.851562 200.097656 L 291.851562 223.488281 L 208.125 223.488281 Z M 250.011719 346.640625 C 224.074219 346.640625 203.03125 325.613281 203.03125 299.671875 C 203.03125 273.734375 224.074219 252.703125 250.011719 252.703125 C 275.941406 252.703125 296.980469 273.734375 296.980469 299.671875 C 296.980469 325.613281 275.941406 346.640625 250.011719 346.640625 Z M 250.011719 346.640625 "/>
<path style=" stroke:none;fill-rule:nonzero;fill:rgb(100%,100%,100%);fill-opacity:1;" d="M 243.730469 303.214844 L 229.058594 292.394531 L 223.136719 298.761719 L 241.28125 319.851562 L 244.457031 323.574219 L 247.792969 319.972656 L 281.832031 283.191406 L 275.84375 276.835938 Z M 243.730469 303.214844 "/>
</g>
</svg>
