<?xml version="1.0" encoding="UTF-8"?>
<svg xmlns="http://www.w3.org/2000/svg" xmlns:xlink="http://www.w3.org/1999/xlink" width="500px" height="px" viewBox="0 0 500 500" version="1.1">
<g id="surface1">
<path style=" stroke:none;fill-rule:nonzero;fill:rgb(93.72549%,26.666667%,26.666667%);fill-opacity:1;" d="M 496.101562 249.308594 C 496.101562 385.554688 385.949219 496.007812 250.074219 496.007812 C 114.199219 496.007812 4.050781 385.554688 4.050781 249.308594 C 4.050781 113.058594 114.199219 2.605469 250.074219 2.605469 C 385.949219 2.605469 496.101562 113.058594 496.101562 249.308594 Z M 496.101562 249.308594 "/>
<path style=" stroke:none;fill-rule:nonzero;fill:rgb(100%,100%,100%);fill-opacity:1;" d="M 353.832031 207.792969 L 291.472656 207.792969 L 291.472656 145.265625 C 291.472656 141.683594 288.578125 138.777344 285.003906 138.777344 L 215.148438 138.777344 C 211.574219 138.777344 208.675781 141.683594 208.675781 145.265625 L 208.675781 207.792969 L 146.320312 207.792969 C 142.746094 207.792969 139.847656 210.699219 139.847656 214.285156 L 139.847656 284.332031 C 139.847656 287.914062 142.746094 290.820312 146.320312 290.820312 L 208.675781 290.820312 L 208.675781 353.335938 C 208.675781 356.921875 211.570312 359.828125 215.148438 359.835938 L 285.003906 359.835938 C 286.722656 359.835938 288.371094 359.152344 289.582031 357.933594 C 290.796875 356.710938 291.476562 355.058594 291.472656 353.335938 L 291.472656 290.820312 L 353.832031 290.820312 C 357.40625 290.820312 360.304688 287.914062 360.304688 284.332031 L 360.304688 214.285156 C 360.304688 210.699219 357.40625 207.792969 353.832031 207.792969 Z M 353.832031 207.792969 "/>
<path style=" stroke:none;fill-rule:nonzero;fill:rgb(23.137255%,50.980392%,96.470588%);fill-opacity:1;" d="M 496.101562 249.609375 C 496.101562 385.859375 385.949219 496.308594 250.074219 496.308594 C 114.199219 496.308594 4.050781 385.859375 4.050781 249.609375 C 4.050781 113.359375 114.199219 2.910156 250.074219 2.910156 C 385.949219 2.910156 496.101562 113.359375 496.101562 249.609375 Z M 496.101562 249.609375 "/>
<path style=" stroke:none;fill-rule:nonzero;fill:rgb(100%,100%,100%);fill-opacity:1;" d="M 181.207031 227.359375 L 117.109375 279.214844 C 115.808594 280.257812 115.054688 281.835938 115.058594 283.507812 L 115.058594 343.636719 C 115.058594 346.667969 117.507812 349.125 120.53125 349.125 L 184.640625 349.125 C 187.660156 349.125 190.113281 346.667969 190.113281 343.636719 L 190.113281 231.679688 C 190.117188 229.550781 188.898438 227.609375 186.980469 226.699219 C 185.085938 225.792969 182.84375 226.046875 181.207031 227.359375 Z M 179.152344 338.09375 L 126.070312 338.09375 L 126.070312 286.15625 L 179.152344 243.214844 Z M 179.152344 338.09375 "/>
<path style=" stroke:none;fill-rule:nonzero;fill:rgb(100%,100%,100%);fill-opacity:1;" d="M 227.242188 193.816406 L 210.703125 204.1875 C 209.082031 205.1875 208.097656 206.957031 208.101562 208.863281 L 208.101562 343.636719 C 208.101562 346.667969 210.550781 349.125 213.574219 349.125 L 277.710938 349.125 C 280.734375 349.125 283.183594 346.667969 283.183594 343.636719 L 283.183594 248.265625 C 283.1875 246.835938 282.636719 245.464844 281.652344 244.4375 L 234.097656 194.679688 C 232.304688 192.800781 229.441406 192.4375 227.242188 193.816406 Z M 272.210938 338.121094 L 219.128906 338.121094 L 219.128906 211.910156 L 229.28125 205.546875 L 272.210938 250.460938 Z M 272.210938 338.121094 "/>
<path style=" stroke:none;fill-rule:nonzero;fill:rgb(100%,100%,100%);fill-opacity:1;" d="M 344.789062 205.96875 L 302.773438 248.113281 C 302.046875 248.839844 301.636719 249.828125 301.640625 250.855469 L 301.640625 345.335938 C 301.640625 347.480469 303.371094 349.21875 305.511719 349.21875 L 347.523438 349.21875 C 349.65625 349.210938 351.382812 347.476562 351.382812 345.335938 L 351.382812 208.714844 C 351.390625 207.144531 350.449219 205.726562 349.003906 205.125 C 347.558594 204.523438 345.890625 204.855469 344.789062 205.96875 Z M 343.667969 341.425781 L 309.367188 341.425781 L 309.367188 252.449219 L 343.667969 218.054688 Z M 343.667969 341.425781 "/>
<path style=" stroke:none;fill-rule:nonzero;fill:rgb(100%,100%,100%);fill-opacity:1;" d="M 380.921875 145.140625 L 290.011719 212.171875 L 237.09375 156.625 C 235 154.5625 231.796875 154.148438 229.253906 155.609375 L 111.789062 237.550781 C 104.949219 242.285156 111.460938 253.546875 118.328125 248.757812 C 156.105469 222.402344 193.882812 196.050781 231.660156 169.710938 L 284.660156 225.355469 C 286.464844 227.246094 290.257812 228.015625 292.5 226.371094 C 324.15625 203.039062 355.8125 179.71875 387.460938 156.40625 C 394.109375 151.453125 387.652344 140.191406 380.921875 145.140625 Z M 380.921875 145.140625 "/>
<path style=" stroke:none;fill-rule:nonzero;fill:rgb(20.392157%,82.745098%,60%);fill-opacity:1;" d="M 499.054688 248.15625 C 499.054688 385.207031 388.257812 496.308594 251.582031 496.308594 C 114.902344 496.308594 4.105469 385.207031 4.105469 248.15625 C 4.105469 111.101562 114.902344 0 251.582031 0 C 388.257812 0 499.054688 111.101562 499.054688 248.15625 Z M 499.054688 248.15625 "/>
<path style=" stroke:none;fill-rule:nonzero;fill:rgb(100%,100%,100%);fill-opacity:1;" d="M 366.707031 344.429688 C 380.703125 344.425781 392.066406 333.074219 392.125 319.039062 L 392.589844 178.203125 C 392.613281 164.140625 381.289062 152.707031 367.265625 152.632812 L 136.523438 151.90625 L 136.441406 151.90625 C 122.441406 151.914062 111.082031 163.261719 111.023438 177.296875 L 110.53125 318.105469 C 110.5 324.867188 113.152344 331.359375 117.902344 336.15625 C 122.652344 340.953125 129.113281 343.660156 135.851562 343.675781 L 366.582031 344.429688 Z M 158.753906 322.480469 L 150.941406 322.480469 L 150.941406 322.34375 L 150.4375 322.34375 C 147.023438 322.335938 143.757812 320.96875 141.351562 318.542969 C 138.945312 316.117188 137.601562 312.828125 137.617188 309.40625 L 138.015625 186.214844 C 138.050781 179.109375 143.800781 173.367188 150.886719 173.359375 L 352.683594 173.992188 C 359.785156 174.03125 365.523438 179.820312 365.515625 186.941406 L 365.105469 310.121094 C 365.074219 317.226562 359.332031 322.972656 352.246094 322.988281 L 158.753906 322.34375 Z M 158.753906 322.480469 "/>
<path style=" stroke:none;fill-rule:nonzero;fill:rgb(100%,100%,100%);fill-opacity:1;" d="M 337.632812 194.433594 L 284.085938 194.433594 C 282.574219 194.433594 281.351562 195.660156 281.351562 197.175781 L 281.351562 268.511719 C 281.351562 270.027344 282.574219 271.257812 284.085938 271.257812 L 337.632812 271.257812 C 339.117188 271.21875 340.300781 270.003906 340.300781 268.511719 L 340.300781 197.175781 C 340.300781 195.6875 339.117188 194.46875 337.632812 194.433594 Z M 334.898438 265.769531 L 286.769531 265.769531 L 286.769531 199.8125 L 334.898438 199.8125 Z M 334.898438 265.769531 "/>
<path style=" stroke:none;fill-rule:nonzero;fill:rgb(100%,100%,100%);fill-opacity:1;" d="M 163.3125 271.09375 L 246.230469 271.09375 C 249.183594 271.09375 251.582031 268.691406 251.582031 265.726562 C 251.582031 262.765625 249.183594 260.363281 246.230469 260.363281 L 163.3125 260.363281 C 160.355469 260.363281 157.960938 262.765625 157.960938 265.726562 C 157.960938 268.691406 160.355469 271.09375 163.3125 271.09375 Z M 163.3125 271.09375 "/>
<path style=" stroke:none;fill-rule:nonzero;fill:rgb(100%,100%,100%);fill-opacity:1;" d="M 285.015625 285.839844 L 163.253906 285.839844 C 160.300781 285.839844 157.90625 288.242188 157.90625 291.203125 C 157.90625 294.167969 160.300781 296.566406 163.253906 296.566406 L 285.015625 296.566406 C 287.972656 296.566406 290.367188 294.167969 290.367188 291.203125 C 290.367188 288.242188 287.972656 285.839844 285.015625 285.839844 Z M 285.015625 285.839844 "/>
<path style=" stroke:none;fill-rule:nonzero;fill:rgb(48.627451%,22.745098%,92.941176%);fill-opacity:1;" d="M 498.824219 249.925781 C 498.824219 387.953125 387.234375 499.847656 249.582031 499.847656 C 111.929688 499.847656 0.34375 387.953125 0.34375 249.925781 C 0.34375 111.894531 111.929688 0 249.582031 0 C 387.234375 0 498.824219 111.894531 498.824219 249.925781 Z M 498.824219 249.925781 "/>
<path style=" stroke:none;fill-rule:nonzero;fill:rgb(100%,100%,100%);fill-opacity:1;" d="M 249.582031 388.234375 C 325.761719 388.234375 387.515625 326.3125 387.515625 249.925781 C 387.515625 173.539062 325.761719 111.613281 249.582031 111.613281 C 173.40625 111.613281 111.652344 173.539062 111.652344 249.925781 C 111.734375 326.277344 173.441406 388.152344 249.582031 388.234375 Z M 249.582031 140.847656 C 309.660156 140.847656 358.359375 189.683594 358.359375 249.925781 C 358.359375 310.164062 309.660156 359 249.582031 359 C 189.507812 359 140.804688 310.164062 140.804688 249.925781 C 140.875 189.710938 189.535156 140.917969 249.582031 140.847656 Z M 249.582031 140.847656 "/>
<path style=" stroke:none;fill-rule:nonzero;fill:rgb(100%,100%,100%);fill-opacity:1;" d="M 219.839844 321.644531 C 220.777344 322.140625 221.820312 322.402344 222.878906 322.398438 C 224.160156 322.40625 225.414062 322.023438 226.476562 321.300781 L 324.171875 255.289062 C 325.949219 254.085938 327.011719 252.074219 327.011719 249.925781 C 327.011719 247.773438 325.949219 245.765625 324.171875 244.5625 L 226.476562 178.546875 C 224.496094 177.214844 221.949219 177.085938 219.84375 178.207031 C 217.742188 179.328125 216.425781 181.523438 216.421875 183.910156 L 216.421875 315.9375 C 216.417969 318.328125 217.734375 320.523438 219.839844 321.644531 Z M 229.335938 196.078125 L 309.011719 249.925781 L 229.335938 303.769531 Z M 229.335938 196.078125 "/>
<path style=" stroke:none;fill-rule:nonzero;fill:rgb(2.352941%,71.372549%,83.137255%);fill-opacity:1;" d="M 499.65625 249.992188 C 499.65625 388.058594 388.039062 499.984375 250.347656 499.984375 C 112.660156 499.984375 1.039062 388.058594 1.039062 249.992188 C 1.039062 111.925781 112.660156 0 250.347656 0 C 388.039062 0 499.65625 111.925781 499.65625 249.992188 Z M 499.65625 249.992188 "/>
<path style=" stroke:none;fill-rule:nonzero;fill:rgb(100%,100%,100%);fill-opacity:1;" d="M 371.027344 179.917969 L 371.027344 178.671875 L 365.378906 178.671875 C 363.300781 173.582031 355.800781 167.40625 324.566406 162.523438 C 300.980469 158.847656 269.707031 156.816406 236.503906 156.816406 C 203.300781 156.816406 172.011719 158.847656 148.425781 162.523438 C 116.824219 167.460938 109.460938 173.730469 107.519531 178.917969 L 106.355469 178.917969 L 106.355469 185.886719 C 106.355469 231.84375 123.292969 275.058594 152.871094 304.882812 C 129.464844 311.21875 117.589844 319.972656 117.589844 330.851562 C 117.589844 358.972656 196.816406 366.410156 238.707031 366.410156 C 280.597656 366.410156 359.796875 359.054688 359.796875 330.90625 C 359.796875 319.929688 347.921875 311.246094 324.457031 304.839844 C 326.113281 303.179688 327.644531 301.589844 329.054688 300.039062 C 336.746094 301.304688 344.519531 301.964844 352.3125 302.015625 C 374.203125 302.015625 391.988281 296.417969 405.121094 285.359375 C 419.773438 273.011719 427.515625 254.820312 427.515625 232.597656 C 427.542969 198.617188 397.433594 183.058594 371.027344 179.917969 Z M 369.566406 209.398438 C 380.386719 212.417969 392.398438 219.277344 392.398438 234.863281 C 392.398438 247.59375 388.15625 257.894531 380.085938 264.628906 C 372.382812 271.09375 361.574219 274.234375 347.921875 274.097656 C 359.335938 254.179688 366.695312 232.191406 369.566406 209.398438 Z M 236.488281 169.902344 C 298.230469 169.902344 340.726562 176.929688 351.410156 182.59375 C 340.78125 188.273438 298.285156 195.296875 236.488281 195.296875 C 174.691406 195.296875 132.226562 188.273438 121.570312 182.59375 C 132.226562 176.929688 174.746094 169.902344 236.488281 169.902344 Z M 346.757812 330.90625 C 346.757812 338.820312 305.714844 353.363281 238.679688 353.363281 C 171.640625 353.363281 130.597656 338.820312 130.597656 330.90625 C 130.597656 327.707031 139.667969 320.988281 164.554688 315.484375 C 186.445312 333.074219 212.109375 342.359375 238.652344 342.359375 C 265.191406 342.359375 290.734375 333.058594 312.707031 315.472656 C 337.632812 320.972656 346.757812 327.695312 346.757812 330.90625 Z M 238.679688 329.273438 C 175.855469 329.273438 123.992188 270.832031 119.65625 195.765625 C 126.359375 198.4375 135.796875 200.703125 148.382812 202.621094 C 171.96875 206.3125 203.246094 208.34375 236.460938 208.34375 C 269.679688 208.34375 300.941406 206.3125 324.527344 202.621094 C 340.21875 200.179688 351.175781 197.230469 357.828125 193.652344 C 354.488281 269.953125 302.625 329.273438 238.679688 329.273438 Z M 396.777344 275.371094 C 383.546875 286.457031 363.53125 290.875 338.769531 288.214844 L 339.835938 286.730469 C 343.339844 287.0625 346.226562 287.210938 348.878906 287.210938 C 350.917969 287.210938 352.914062 287.210938 354.871094 287.019531 C 368.550781 286.085938 379.796875 281.945312 388.5 274.671875 C 396.886719 267.546875 402.507812 257.6875 404.371094 246.824219 C 405.105469 242.878906 405.46875 238.875 405.449219 234.863281 C 405.449219 208.109375 382.191406 199.015625 370.753906 196.160156 C 370.753906 195.171875 370.863281 194.1875 370.890625 193.210938 C 377.523438 194.167969 384.011719 195.960938 390.195312 198.546875 C 406.3125 205.519531 414.492188 216.984375 414.492188 232.625 C 414.492188 250.886719 408.363281 265.660156 396.777344 275.371094 Z M 396.777344 275.371094 "/>
</g>
</svg>
