<?xml version="1.0" encoding="UTF-8"?>
<svg xmlns="http://www.w3.org/2000/svg" xmlns:xlink="http://www.w3.org/1999/xlink" width="500px" height="px" viewBox="0 0 500 500" version="1.1">
<g id="surface1">
<path style=" stroke:none;fill-rule:nonzero;fill:rgb(98.431373%,74.901961%,14.117647%);fill-opacity:1;" d="M 250 0 C 111.363281 0 0 111.363281 0 250 C 0 388.636719 111.363281 500 250 500 C 388.636719 500 500 388.636719 500 250 C 500 111.363281 388.636719 0 250 0 Z M 229.546875 181.816406 L 261.363281 181.816406 C 268.183594 181.816406 272.726562 186.363281 272.726562 193.183594 L 272.726562 215.910156 C 272.726562 222.726562 268.183594 227.273438 261.363281 227.273438 L 200 227.273438 C 197.726562 227.273438 194.316406 229.546875 194.316406 231.816406 C 193.183594 237.5 193.183594 243.183594 193.183594 250 C 193.183594 255.683594 193.183594 262.5 194.316406 268.183594 C 194.316406 270.453125 197.726562 272.726562 200 272.726562 L 261.363281 272.726562 C 268.183594 272.726562 272.726562 277.273438 272.726562 284.089844 L 272.726562 306.816406 C 272.726562 313.636719 268.183594 318.183594 261.363281 318.183594 L 229.546875 318.183594 C 225 318.183594 221.589844 325 225 328.410156 C 240.910156 343.183594 261.363281 352.273438 284.089844 352.273438 C 318.183594 352.273438 338.636719 329.546875 348.863281 319.316406 L 350 318.183594 C 354.546875 313.636719 361.363281 313.636719 365.910156 317.046875 L 382.953125 331.816406 C 385.226562 334.089844 386.363281 336.363281 386.363281 339.773438 C 386.363281 343.183594 385.226562 345.453125 382.953125 347.726562 C 370.453125 360.226562 338.636719 396.589844 284.089844 396.589844 C 232.953125 396.589844 187.5 365.910156 164.773438 320.453125 C 163.636719 318.183594 161.363281 317.046875 160.226562 317.046875 L 125 317.046875 C 118.183594 317.046875 113.636719 312.5 113.636719 305.683594 L 113.636719 282.953125 C 113.636719 276.136719 118.183594 271.589844 125 271.589844 L 143.183594 271.589844 C 146.589844 271.589844 148.863281 268.183594 148.863281 264.773438 C 147.726562 259.089844 147.726562 253.410156 147.726562 248.863281 C 147.726562 244.316406 147.726562 237.5 148.863281 232.953125 C 148.863281 229.546875 146.589844 226.136719 143.183594 226.136719 L 125 226.136719 C 118.183594 226.136719 113.636719 221.589844 113.636719 214.773438 L 113.636719 192.046875 C 113.636719 185.226562 118.183594 180.683594 125 180.683594 L 160.226562 180.683594 C 162.5 180.683594 164.773438 179.546875 164.773438 177.273438 C 187.5 131.816406 232.953125 101.136719 284.089844 101.136719 C 338.636719 101.136719 370.453125 136.363281 382.953125 150 C 385.226562 152.273438 386.363281 154.546875 386.363281 157.953125 C 386.363281 161.363281 385.226562 164.773438 382.953125 165.910156 L 365.910156 180.683594 C 361.363281 185.226562 354.546875 184.089844 350 179.546875 L 348.863281 178.410156 C 338.636719 167.046875 318.183594 145.453125 284.089844 145.453125 C 261.363281 145.453125 240.910156 154.546875 225 169.316406 C 221.589844 175 223.863281 181.816406 229.546875 181.816406 Z M 229.546875 181.816406 "/>
</g>
</svg>
