<?xml version="1.0" encoding="UTF-8"?>
<svg xmlns="http://www.w3.org/2000/svg" xmlns:xlink="http://www.w3.org/1999/xlink" width="500px" height="px" viewBox="0 0 500 500" version="1.1">
<g id="surface1">
<path style=" stroke:none;fill-rule:nonzero;fill:rgb(93.72549%,26.666667%,26.666667%);fill-opacity:1;" d="M 499.855469 249.847656 C 499.855469 387.832031 387.992188 499.695312 250.007812 499.695312 C 112.019531 499.695312 0.160156 387.832031 0.160156 249.847656 C 0.160156 111.859375 112.019531 0 250.007812 0 C 387.992188 0 499.855469 111.859375 499.855469 249.847656 Z M 499.855469 249.847656 "/>
<path style=" stroke:none;fill-rule:nonzero;fill:rgb(100%,100%,100%);fill-opacity:1;" d="M 355.375 207.804688 L 292.046875 207.804688 L 292.046875 144.480469 C 292.046875 140.847656 289.105469 137.90625 285.476562 137.90625 L 214.535156 137.90625 C 210.90625 137.90625 207.964844 140.847656 207.964844 144.480469 L 207.964844 207.804688 L 144.636719 207.804688 C 141.007812 207.804688 138.066406 210.746094 138.066406 214.378906 L 138.066406 285.316406 C 138.066406 288.945312 141.007812 291.890625 144.636719 291.890625 L 207.964844 291.890625 L 207.964844 355.203125 C 207.964844 358.832031 210.90625 361.78125 214.535156 361.789062 L 285.476562 361.789062 C 287.222656 361.789062 288.894531 361.09375 290.128906 359.859375 C 291.363281 358.621094 292.050781 356.945312 292.046875 355.203125 L 292.046875 291.890625 L 355.375 291.890625 C 359.003906 291.890625 361.945312 288.945312 361.945312 285.316406 L 361.945312 214.378906 C 361.945312 210.746094 359.003906 207.804688 355.375 207.804688 Z M 355.375 207.804688 "/>
<path style=" stroke:none;fill-rule:nonzero;fill:rgb(23.137255%,50.980392%,96.470588%);fill-opacity:1;" d="M 499.855469 250.152344 C 499.855469 388.140625 387.992188 500 250.007812 500 C 112.019531 500 0.160156 388.140625 0.160156 250.152344 C 0.160156 112.167969 112.019531 0.304688 250.007812 0.304688 C 387.992188 0.304688 499.855469 112.167969 499.855469 250.152344 Z M 499.855469 250.152344 "/>
<path style=" stroke:none;fill-rule:nonzero;fill:rgb(100%,100%,100%);fill-opacity:1;" d="M 180.066406 227.617188 L 114.976562 280.136719 C 113.65625 281.191406 112.886719 282.792969 112.890625 284.484375 L 112.890625 345.378906 C 112.890625 348.449219 115.378906 350.9375 118.449219 350.9375 L 183.554688 350.9375 C 186.625 350.9375 189.113281 348.449219 189.113281 345.378906 L 189.113281 231.992188 C 189.121094 229.839844 187.878906 227.871094 185.929688 226.949219 C 184.007812 226.03125 181.730469 226.289062 180.066406 227.617188 Z M 177.984375 339.765625 L 124.074219 339.765625 L 124.074219 287.164062 L 177.984375 243.679688 Z M 177.984375 339.765625 "/>
<path style=" stroke:none;fill-rule:nonzero;fill:rgb(100%,100%,100%);fill-opacity:1;" d="M 226.820312 193.648438 L 210.019531 204.152344 C 208.378906 205.164062 207.378906 206.957031 207.382812 208.890625 L 207.382812 345.378906 C 207.382812 348.449219 209.871094 350.9375 212.9375 350.9375 L 278.070312 350.9375 C 281.140625 350.9375 283.628906 348.449219 283.628906 345.378906 L 283.628906 248.792969 C 283.632812 247.347656 283.078125 245.957031 282.074219 244.914062 L 233.78125 194.523438 C 231.960938 192.617188 229.054688 192.253906 226.820312 193.648438 Z M 272.488281 339.792969 L 218.578125 339.792969 L 218.578125 211.972656 L 228.890625 205.527344 L 272.488281 251.015625 Z M 272.488281 339.792969 "/>
<path style=" stroke:none;fill-rule:nonzero;fill:rgb(100%,100%,100%);fill-opacity:1;" d="M 346.191406 205.957031 L 303.523438 248.636719 C 302.785156 249.375 302.371094 250.375 302.371094 251.417969 L 302.371094 347.101562 C 302.371094 349.273438 304.132812 351.035156 306.304688 351.035156 L 348.96875 351.035156 C 351.136719 351.027344 352.886719 349.269531 352.886719 347.101562 L 352.886719 208.734375 C 352.894531 207.144531 351.941406 205.710938 350.472656 205.101562 C 349.003906 204.492188 347.3125 204.828125 346.191406 205.957031 Z M 345.050781 343.140625 L 310.222656 343.140625 L 310.222656 253.027344 L 345.050781 218.199219 Z M 345.050781 343.140625 "/>
<path style=" stroke:none;fill-rule:nonzero;fill:rgb(100%,100%,100%);fill-opacity:1;" d="M 382.882812 144.355469 L 290.5625 212.238281 L 236.820312 155.984375 C 234.699219 153.894531 231.445312 153.472656 228.859375 154.953125 L 109.570312 237.941406 C 102.625 242.734375 109.238281 254.140625 116.210938 249.292969 C 154.578125 222.597656 192.941406 195.914062 231.304688 169.238281 L 285.128906 225.589844 C 286.964844 227.507812 290.8125 228.285156 293.089844 226.617188 C 325.242188 202.988281 357.386719 179.371094 389.527344 155.761719 C 396.277344 150.746094 389.71875 139.339844 382.882812 144.355469 Z M 382.882812 144.355469 "/>
</g>
</svg>
