<?xml version="1.0" encoding="UTF-8"?>
<svg xmlns="http://www.w3.org/2000/svg" xmlns:xlink="http://www.w3.org/1999/xlink" width="500px" height="px" viewBox="0 0 500 500" version="1.1">
<g id="surface1">
<path style=" stroke:none;fill-rule:nonzero;fill:rgb(93.72549%,26.666667%,26.666667%);fill-opacity:1;" d="M 496.480469 249.390625 C 496.480469 385.683594 386.296875 496.171875 250.375 496.171875 C 114.457031 496.171875 4.269531 385.683594 4.269531 249.390625 C 4.269531 113.09375 114.457031 2.605469 250.375 2.605469 C 386.296875 2.605469 496.480469 113.09375 496.480469 249.390625 Z M 496.480469 249.390625 "/>
<path style=" stroke:none;fill-rule:nonzero;fill:rgb(100%,100%,100%);fill-opacity:1;" d="M 354.167969 207.863281 L 291.789062 207.863281 L 291.789062 145.3125 C 291.789062 141.730469 288.890625 138.824219 285.316406 138.824219 L 215.4375 138.824219 C 211.863281 138.824219 208.964844 141.730469 208.964844 145.3125 L 208.964844 207.863281 L 146.585938 207.863281 C 143.011719 207.863281 140.113281 210.769531 140.113281 214.355469 L 140.113281 284.425781 C 140.113281 288.007812 143.011719 290.914062 146.585938 290.914062 L 208.964844 290.914062 L 208.964844 353.453125 C 208.964844 357.039062 211.859375 359.949219 215.4375 359.957031 L 285.316406 359.957031 C 287.035156 359.957031 288.683594 359.269531 289.898438 358.050781 C 291.113281 356.828125 291.792969 355.175781 291.789062 353.453125 L 291.789062 290.914062 L 354.167969 290.914062 C 357.742188 290.914062 360.640625 288.007812 360.640625 284.425781 L 360.640625 214.355469 C 360.640625 210.769531 357.742188 207.863281 354.167969 207.863281 Z M 354.167969 207.863281 "/>
<path style=" stroke:none;fill-rule:nonzero;fill:rgb(23.137255%,50.980392%,96.470588%);fill-opacity:1;" d="M 496.480469 249.691406 C 496.480469 385.984375 386.296875 496.472656 250.375 496.472656 C 114.457031 496.472656 4.269531 385.984375 4.269531 249.691406 C 4.269531 113.398438 114.457031 2.910156 250.375 2.910156 C 386.296875 2.910156 496.480469 113.398438 496.480469 249.691406 Z M 496.480469 249.691406 "/>
<path style=" stroke:none;fill-rule:nonzero;fill:rgb(100%,100%,100%);fill-opacity:1;" d="M 181.484375 227.433594 L 117.367188 279.304688 C 116.066406 280.347656 115.3125 281.929688 115.3125 283.601562 L 115.3125 343.75 C 115.3125 346.78125 117.765625 349.238281 120.789062 349.238281 L 184.917969 349.238281 C 187.941406 349.238281 190.394531 346.78125 190.394531 343.75 L 190.394531 231.753906 C 190.398438 229.625 189.179688 227.683594 187.257812 226.773438 C 185.367188 225.867188 183.125 226.121094 181.484375 227.433594 Z M 179.429688 338.203125 L 126.332031 338.203125 L 126.332031 286.25 L 179.429688 243.296875 Z M 179.429688 338.203125 "/>
<path style=" stroke:none;fill-rule:nonzero;fill:rgb(100%,100%,100%);fill-opacity:1;" d="M 227.535156 193.878906 L 210.988281 204.253906 C 209.371094 205.253906 208.386719 207.027344 208.390625 208.933594 L 208.390625 343.75 C 208.390625 346.78125 210.839844 349.238281 213.863281 349.238281 L 278.019531 349.238281 C 281.042969 349.238281 283.496094 346.78125 283.496094 343.75 L 283.496094 248.347656 C 283.5 246.917969 282.949219 245.546875 281.960938 244.519531 L 234.390625 194.742188 C 232.597656 192.863281 229.734375 192.503906 227.535156 193.878906 Z M 272.519531 338.234375 L 219.417969 338.234375 L 219.417969 211.980469 L 229.574219 205.613281 L 272.519531 250.542969 Z M 272.519531 338.234375 "/>
<path style=" stroke:none;fill-rule:nonzero;fill:rgb(100%,100%,100%);fill-opacity:1;" d="M 345.121094 206.039062 L 303.09375 248.195312 C 302.363281 248.921875 301.953125 249.910156 301.957031 250.941406 L 301.957031 345.449219 C 301.957031 347.59375 303.691406 349.335938 305.828125 349.335938 L 347.859375 349.335938 C 349.992188 349.328125 351.71875 347.589844 351.71875 345.449219 L 351.71875 208.78125 C 351.722656 207.210938 350.785156 205.792969 349.335938 205.191406 C 347.890625 204.589844 346.226562 204.925781 345.121094 206.039062 Z M 344 341.539062 L 309.6875 341.539062 L 309.6875 252.53125 L 344 218.128906 Z M 344 341.539062 "/>
<path style=" stroke:none;fill-rule:nonzero;fill:rgb(100%,100%,100%);fill-opacity:1;" d="M 381.265625 145.191406 L 290.324219 212.242188 L 237.390625 156.675781 C 235.296875 154.613281 232.09375 154.199219 229.546875 155.660156 L 112.042969 237.628906 C 105.199219 242.363281 111.714844 253.628906 118.585938 248.839844 C 156.375 222.472656 194.164062 196.117188 231.957031 169.769531 L 284.972656 225.429688 C 286.78125 227.324219 290.570312 228.089844 292.816406 226.445312 C 324.484375 203.105469 356.148438 179.777344 387.804688 156.457031 C 394.457031 151.503906 387.996094 140.234375 381.265625 145.191406 Z M 381.265625 145.191406 "/>
<path style=" stroke:none;fill-rule:nonzero;fill:rgb(20.392157%,82.745098%,60%);fill-opacity:1;" d="M 499.4375 248.238281 C 499.4375 385.332031 388.601562 496.472656 251.882812 496.472656 C 115.160156 496.472656 4.324219 385.332031 4.324219 248.238281 C 4.324219 111.140625 115.160156 0 251.882812 0 C 388.601562 0 499.4375 111.140625 499.4375 248.238281 Z M 499.4375 248.238281 "/>
<path style=" stroke:none;fill-rule:nonzero;fill:rgb(100%,100%,100%);fill-opacity:1;" d="M 367.046875 344.546875 C 381.046875 344.539062 392.414062 333.183594 392.472656 319.144531 L 392.9375 178.261719 C 392.960938 164.195312 381.632812 152.757812 367.605469 152.683594 L 136.785156 151.957031 L 136.703125 151.957031 C 122.703125 151.964844 111.335938 163.316406 111.277344 177.355469 L 110.785156 318.210938 C 110.753906 324.972656 113.410156 331.46875 118.160156 336.265625 C 122.914062 341.066406 129.371094 343.773438 136.117188 343.789062 L 366.921875 344.546875 Z M 159.027344 322.589844 L 151.210938 322.589844 L 151.210938 322.449219 L 150.703125 322.449219 C 147.292969 322.445312 144.023438 321.074219 141.617188 318.648438 C 139.210938 316.21875 137.867188 312.933594 137.882812 309.511719 L 138.277344 186.277344 C 138.316406 179.167969 144.070312 173.425781 151.15625 173.417969 L 353.015625 174.050781 C 360.125 174.085938 365.863281 179.878906 365.855469 187.003906 L 365.445312 310.222656 C 365.414062 317.332031 359.667969 323.082031 352.578125 323.097656 L 159.027344 322.449219 Z M 159.027344 322.589844 "/>
<path style=" stroke:none;fill-rule:nonzero;fill:rgb(100%,100%,100%);fill-opacity:1;" d="M 337.964844 194.496094 L 284.398438 194.496094 C 282.886719 194.496094 281.660156 195.726562 281.660156 197.242188 L 281.660156 268.601562 C 281.660156 270.117188 282.886719 271.347656 284.398438 271.347656 L 337.964844 271.347656 C 339.449219 271.308594 340.632812 270.089844 340.632812 268.601562 L 340.632812 197.242188 C 340.632812 195.753906 339.449219 194.535156 337.964844 194.496094 Z M 335.226562 265.855469 L 287.082031 265.855469 L 287.082031 199.875 L 335.226562 199.875 Z M 335.226562 265.855469 "/>
<path style=" stroke:none;fill-rule:nonzero;fill:rgb(100%,100%,100%);fill-opacity:1;" d="M 163.582031 271.179688 L 246.53125 271.179688 C 249.484375 271.179688 251.882812 268.777344 251.882812 265.816406 C 251.882812 262.851562 249.484375 260.449219 246.53125 260.449219 L 163.582031 260.449219 C 160.628906 260.449219 158.230469 262.851562 158.230469 265.816406 C 158.230469 268.777344 160.628906 271.179688 163.582031 271.179688 Z M 163.582031 271.179688 "/>
<path style=" stroke:none;fill-rule:nonzero;fill:rgb(100%,100%,100%);fill-opacity:1;" d="M 285.328125 285.933594 L 163.527344 285.933594 C 160.574219 285.933594 158.175781 288.335938 158.175781 291.300781 C 158.175781 294.261719 160.574219 296.664062 163.527344 296.664062 L 285.328125 296.664062 C 288.285156 296.664062 290.679688 294.261719 290.679688 291.300781 C 290.679688 288.335938 288.285156 285.933594 285.328125 285.933594 Z M 285.328125 285.933594 "/>
<path style=" stroke:none;fill-rule:nonzero;fill:rgb(48.627451%,22.745098%,92.941176%);fill-opacity:1;" d="M 499.207031 250.007812 C 499.207031 388.082031 387.582031 500.015625 249.882812 500.015625 C 112.1875 500.015625 0.5625 388.082031 0.5625 250.007812 C 0.5625 111.933594 112.1875 0 249.882812 0 C 387.582031 0 499.207031 111.933594 499.207031 250.007812 Z M 499.207031 250.007812 "/>
<path style=" stroke:none;fill-rule:nonzero;fill:rgb(100%,100%,100%);fill-opacity:1;" d="M 249.882812 388.363281 C 326.085938 388.363281 387.859375 326.417969 387.859375 250.007812 C 387.859375 173.59375 326.085938 111.652344 249.882812 111.652344 C 173.679688 111.652344 111.90625 173.59375 111.90625 250.007812 C 111.988281 326.382812 173.714844 388.28125 249.882812 388.363281 Z M 249.882812 140.894531 C 309.980469 140.894531 358.695312 189.746094 358.695312 250.007812 C 358.695312 310.269531 309.980469 359.117188 249.882812 359.117188 C 189.789062 359.117188 141.070312 310.269531 141.070312 250.007812 C 141.136719 189.773438 189.816406 140.960938 249.882812 140.894531 Z M 249.882812 140.894531 "/>
<path style=" stroke:none;fill-rule:nonzero;fill:rgb(100%,100%,100%);fill-opacity:1;" d="M 220.132812 321.75 C 221.066406 322.246094 222.109375 322.507812 223.167969 322.503906 C 224.453125 322.511719 225.707031 322.128906 226.769531 321.40625 L 324.496094 255.371094 C 326.273438 254.167969 327.339844 252.15625 327.339844 250.007812 C 327.339844 247.855469 326.273438 245.847656 324.496094 244.640625 L 226.769531 178.605469 C 224.789062 177.273438 222.238281 177.144531 220.136719 178.265625 C 218.03125 179.386719 216.714844 181.582031 216.710938 183.972656 L 216.710938 316.042969 C 216.710938 318.433594 218.027344 320.628906 220.132812 321.75 Z M 229.628906 196.144531 L 309.332031 250.007812 L 229.628906 303.871094 Z M 229.628906 196.144531 "/>
</g>
</svg>
