<?xml version="1.0" encoding="UTF-8"?>
<svg xmlns="http://www.w3.org/2000/svg" xmlns:xlink="http://www.w3.org/1999/xlink" width="500px" height="px" viewBox="0 0 500 500" version="1.1">
<g id="surface1">
<path style=" stroke:none;fill-rule:nonzero;fill:rgb(93.72549%,26.666667%,26.666667%);fill-opacity:1;" d="M 229.492188 0.976562 C 119.921875 10.9375 30.175781 89.160156 6.347656 195.3125 C 1.953125 214.746094 0.585938 227.636719 0.585938 250 C 0.585938 272.363281 1.953125 285.253906 6.347656 304.6875 C 25.390625 389.84375 88.476562 459.570312 171.09375 486.816406 C 199.21875 496.09375 220.214844 499.414062 250 499.414062 C 279.785156 499.414062 300.78125 496.09375 328.90625 486.816406 C 411.523438 459.570312 474.609375 389.84375 493.652344 304.6875 C 498.046875 285.253906 499.414062 272.363281 499.414062 250 C 499.414062 227.636719 498.046875 214.746094 493.652344 195.3125 C 471.09375 94.628906 388.28125 17.96875 285.839844 2.832031 C 270.996094 0.683594 243.066406 -0.292969 229.492188 0.976562 Z M 289.84375 89.355469 C 294.140625 91.210938 297.558594 94.238281 299.414062 97.851562 L 300.878906 100.585938 L 199.121094 100.585938 L 200.585938 97.851562 C 202.441406 94.335938 205.859375 91.210938 209.960938 89.453125 C 215.136719 87.207031 284.472656 87.207031 289.84375 89.355469 Z M 353.613281 105.566406 C 358.59375 107.226562 363.085938 110.9375 365.234375 115.234375 C 367.1875 118.945312 367.1875 121.191406 367.1875 226.5625 C 367.1875 330.273438 367.089844 334.179688 365.332031 337.695312 C 360.644531 346.875 355.957031 348.632812 336.425781 348.632812 C 328.125 348.632812 321.289062 348.828125 321.289062 349.121094 C 321.289062 349.414062 327.929688 360.9375 335.9375 374.902344 C 350.097656 399.316406 350.585938 400.292969 350.585938 405.664062 L 350.585938 411.132812 L 149.414062 411.132812 L 149.414062 399.414062 L 166.015625 374.511719 C 175.097656 360.839844 182.617188 349.414062 182.617188 349.121094 C 182.617188 348.828125 174.902344 348.632812 165.527344 348.632812 C 152.246094 348.632812 147.558594 348.242188 144.726562 347.167969 C 140.136719 345.214844 137.011719 342.285156 134.667969 337.695312 C 132.910156 334.179688 132.8125 330.273438 132.8125 226.5625 C 132.8125 123.046875 132.910156 118.945312 134.667969 115.429688 C 137.011719 110.839844 139.0625 108.984375 144.53125 106.542969 C 148.828125 104.589844 150.488281 104.492188 249.609375 104.492188 C 322.363281 104.492188 351.171875 104.785156 353.613281 105.566406 Z M 353.613281 105.566406 "/>
<path style=" stroke:none;fill-rule:nonzero;fill:rgb(93.72549%,26.666667%,26.666667%);fill-opacity:1;" d="M 167.871094 130.664062 C 163.671875 132.8125 162.109375 134.375 159.960938 138.574219 L 157.226562 143.75 L 157.226562 213.867188 L 342.773438 213.867188 L 342.773438 178.90625 C 342.773438 146.972656 342.578125 143.75 340.917969 140.039062 C 338.671875 135.15625 335.742188 132.128906 330.566406 129.785156 C 326.855469 128.027344 322.65625 127.929688 249.902344 127.929688 L 173.046875 127.929688 Z M 167.871094 130.664062 "/>
<path style=" stroke:none;fill-rule:nonzero;fill:rgb(93.72549%,26.666667%,26.666667%);fill-opacity:1;" d="M 160.351562 285.351562 C 159.570312 286.132812 159.179688 291.308594 159.179688 302.246094 C 159.179688 313.183594 159.570312 318.359375 160.351562 319.140625 C 162.011719 320.800781 192.480469 320.800781 194.140625 319.140625 C 195.800781 317.480469 195.800781 287.011719 194.140625 285.351562 C 193.359375 284.570312 188.183594 284.179688 177.246094 284.179688 C 166.308594 284.179688 161.132812 284.570312 160.351562 285.351562 Z M 160.351562 285.351562 "/>
<path style=" stroke:none;fill-rule:nonzero;fill:rgb(93.72549%,26.666667%,26.666667%);fill-opacity:1;" d="M 304.882812 285.351562 C 303.222656 287.011719 303.222656 317.480469 304.882812 319.140625 C 306.25 320.507812 336.523438 320.800781 338.671875 319.53125 C 339.550781 318.847656 339.84375 314.648438 339.648438 301.660156 L 339.355469 284.667969 L 322.753906 284.375 C 310.644531 284.179688 305.761719 284.472656 304.882812 285.351562 Z M 304.882812 285.351562 "/>
<path style=" stroke:none;fill-rule:nonzero;fill:rgb(93.72549%,26.666667%,26.666667%);fill-opacity:1;" d="M 190.820312 354.6875 C 188.769531 358.105469 186.523438 361.816406 185.742188 362.988281 L 184.375 365.234375 L 318.554688 365.234375 L 314.257812 357.128906 L 309.960938 349.121094 L 252.246094 348.828125 L 194.53125 348.632812 Z M 190.820312 354.6875 "/>
<path style=" stroke:none;fill-rule:nonzero;fill:rgb(93.72549%,26.666667%,26.666667%);fill-opacity:1;" d="M 177.050781 378.125 C 175.585938 379.980469 165.039062 398.242188 165.039062 398.828125 C 165.039062 399.121094 203.515625 399.414062 250.585938 399.414062 C 303.320312 399.414062 335.9375 399.023438 335.742188 398.535156 C 335.644531 397.949219 333.007812 392.96875 330.078125 387.304688 L 324.707031 376.953125 L 251.367188 376.953125 C 193.75 376.953125 177.734375 377.246094 177.050781 378.125 Z M 177.050781 378.125 "/>
</g>
</svg>
