<?xml version="1.0" encoding="UTF-8"?>
<svg xmlns="http://www.w3.org/2000/svg" xmlns:xlink="http://www.w3.org/1999/xlink" width="500px" height="px" viewBox="0 0 500 500" version="1.1">
<g id="surface1">
<path style=" stroke:none;fill-rule:nonzero;fill:rgb(7.843137%,72.156863%,65.098039%);fill-opacity:1;" d="M 500 250 C 500 388.070312 388.070312 500 250 500 C 111.929688 500 0 388.070312 0 250 C 0 111.929688 111.929688 0 250 0 C 388.070312 0 500 111.929688 500 250 Z M 500 250 "/>
<path style=" stroke:none;fill-rule:nonzero;fill:rgb(94.509804%,96.078431%,97.647059%);fill-opacity:1;" d="M 118.523438 360.820312 L 60.4375 318.144531 C 58.660156 316.855469 57.933594 314.558594 58.640625 312.480469 L 59.949219 308.964844 C 60.753906 306.832031 63.042969 305.652344 65.242188 306.238281 C 90.632812 312.859375 116.007812 319.472656 141.367188 326.074219 C 132.179688 338.242188 123.457031 350.917969 118.523438 360.820312 Z M 118.523438 360.820312 "/>
<path style=" stroke:none;fill-rule:nonzero;fill:rgb(94.509804%,96.078431%,97.647059%);fill-opacity:1;" d="M 188.222656 437.234375 L 184.6875 438.535156 C 182.609375 439.25 180.308594 438.519531 179.023438 436.738281 L 136.367188 378.664062 C 146.269531 373.730469 158.945312 364.992188 171.113281 355.820312 C 177.726562 381.210938 184.339844 406.585938 190.945312 431.945312 C 191.523438 434.144531 190.351562 436.425781 188.222656 437.234375 Z M 188.222656 437.234375 "/>
<path style=" stroke:none;fill-rule:nonzero;fill:rgb(94.509804%,96.078431%,97.647059%);fill-opacity:1;" d="M 376.308594 332.03125 L 357.238281 351.101562 C 354.191406 337.390625 351.132812 323.691406 348.066406 310 L 351.183594 306.894531 C 355.660156 302.425781 362.914062 302.425781 367.394531 306.894531 L 376.308594 315.820312 C 378.460938 317.96875 379.667969 320.886719 379.667969 323.925781 C 379.667969 326.964844 378.460938 329.882812 376.308594 332.03125 Z M 376.308594 332.03125 "/>
<path style=" stroke:none;fill-rule:nonzero;fill:rgb(94.509804%,96.078431%,97.647059%);fill-opacity:1;" d="M 360.460938 279.296875 L 344.726562 295 C 341.671875 281.328125 338.617188 267.636719 335.554688 253.925781 C 340.054688 249.640625 347.148438 249.726562 351.542969 254.121094 L 360.46875 263.035156 C 362.625 265.191406 363.839844 268.117188 363.835938 271.167969 C 363.835938 274.21875 362.621094 277.144531 360.460938 279.296875 Z M 360.460938 279.296875 "/>
<path style=" stroke:none;fill-rule:nonzero;fill:rgb(94.509804%,96.078431%,97.647059%);fill-opacity:1;" d="M 243.925781 161.777344 L 202.863281 152.625 L 218.351562 137.136719 C 222.828125 132.667969 230.082031 132.667969 234.5625 137.136719 L 243.484375 146.0625 C 247.773438 150.355469 247.96875 157.25 243.925781 161.777344 Z M 243.925781 161.777344 "/>
<path style=" stroke:none;fill-rule:nonzero;fill:rgb(94.509804%,96.078431%,97.647059%);fill-opacity:1;" d="M 190.691406 146.425781 L 187.851562 149.265625 C 174.179688 146.199219 160.484375 143.140625 146.765625 140.085938 L 165.566406 121.289062 C 167.710938 119.136719 170.625 117.929688 173.660156 117.929688 C 176.699219 117.929688 179.613281 119.136719 181.757812 121.289062 L 190.695312 130.226562 C 195.167969 134.699219 195.167969 141.953125 190.691406 146.425781 Z M 190.691406 146.425781 "/>
<path style=" stroke:none;fill-rule:nonzero;fill:rgb(100%,100%,100%);fill-opacity:1;" d="M 392.351562 152.96875 C 390.160156 156.972656 387.644531 160.792969 384.835938 164.394531 C 371.777344 181.09375 350.28125 202.480469 328.5625 222.644531 C 330.890625 233.0625 333.210938 243.480469 335.539062 253.898438 C 338.601562 267.570312 341.664062 281.257812 344.714844 294.960938 C 345.835938 299.980469 346.957031 304.984375 348.074219 309.96875 C 351.140625 323.6875 354.191406 337.394531 357.226562 351.09375 C 361.902344 371.925781 366.570312 392.820312 371.230469 413.769531 C 371.835938 416.496094 370.742188 418.90625 368.476562 419.824219 L 358.171875 424.015625 C 355.242188 425.214844 351.171875 423.554688 349.023438 420.226562 L 279.570312 313.585938 L 253.90625 287.898438 C 226.679688 310.3125 213.078125 321.503906 212.722656 321.828125 C 212.722656 321.828125 192.726562 339.503906 171.09375 355.828125 C 158.953125 365.007812 146.269531 373.742188 136.367188 378.671875 C 136.367188 378.671875 131.320312 381.367188 121.355469 382.492188 C 120.335938 382.628906 119.292969 382.523438 118.320312 382.179688 C 117.550781 381.898438 116.847656 381.464844 116.25 380.90625 C 115.835938 380.304688 115.507812 379.648438 115.273438 378.953125 C 114.921875 377.949219 114.738281 376.894531 114.726562 375.832031 C 114.789062 370.59375 116.097656 365.449219 118.542969 360.820312 C 123.484375 350.917969 132.21875 338.242188 141.386719 326.074219 C 157.683594 304.464844 175.359375 284.460938 175.359375 284.460938 C 175.683594 284.109375 186.90625 270.519531 209.289062 243.28125 L 183.59375 217.597656 L 76.914062 148.171875 C 73.585938 145.996094 71.921875 141.984375 73.125 139.023438 L 77.316406 128.691406 C 78.292969 126.425781 80.644531 125.332031 83.398438 125.9375 C 104.519531 130.644531 125.640625 135.359375 146.769531 140.085938 C 160.441406 143.128906 174.136719 146.1875 187.859375 149.265625 L 202.871094 152.625 C 216.542969 155.667969 230.214844 158.71875 243.886719 161.777344 L 274.472656 168.613281 C 294.679688 146.855469 316.054688 125.359375 332.734375 112.304688 C 336.359375 109.523438 340.1875 107.007812 344.179688 104.785156 C 352.382812 100.226562 365.304688 93.222656 380.597656 95.019531 C 385.214844 95.59375 391.210938 96.398438 395.949219 101.132812 C 400.683594 105.871094 401.484375 111.875 402.0625 116.484375 C 403.945312 131.835938 396.941406 144.734375 392.351562 152.96875 Z M 392.351562 152.96875 "/>
</g>
</svg>
